<svg xmlns="http://www.w3.org/2000/svg" xmlns:xlink="http://www.w3.org/1999/xlink" width="500" zoomAndPan="magnify" viewBox="0 0 375 82.499998" height="110" preserveAspectRatio="xMidYMid meet" version="1.0"><defs><g/><clipPath id="84010fb3b3"><path d="M 6.269531 7.257812 L 97.964844 7.257812 L 97.964844 75 L 6.269531 75 Z M 6.269531 7.257812 " clip-rule="nonzero"/></clipPath></defs><g clip-path="url(#84010fb3b3)"><path fill="#ffffff" d="M 87.957031 13.25 C 87.648438 13.417969 87.429688 13.382812 87.089844 13.261719 C 87.402344 13.109375 87.617188 13.085938 87.957031 13.25 Z M 90.492188 9.804688 C 90.714844 9.898438 90.875 10.058594 90.972656 10.277344 C 90.34375 10.59375 90.574219 10.039062 90.492188 9.804688 Z M 86.679688 9.5625 C 87.796875 9.585938 88.921875 9.460938 90.015625 9.804688 C 89.761719 10.054688 89.535156 10.335938 89.253906 10.546875 C 88.582031 11.042969 88.136719 10.996094 87.535156 10.367188 C 87.265625 10.082031 86.855469 9.949219 86.679688 9.5625 Z M 14.824219 9.878906 C 15.40625 9.71875 15.882812 9.351562 16.421875 9.070312 C 16.605469 9.527344 17.125 9.691406 17.347656 10.109375 C 17.253906 10.191406 17.207031 10.269531 17.144531 10.285156 C 16.816406 10.359375 16.382812 9.917969 16.167969 10.332031 C 15.9375 10.78125 16.453125 10.882812 16.722656 11.074219 C 16.941406 11.230469 17.066406 11.441406 16.894531 11.675781 C 16.707031 11.9375 16.375 11.972656 16.152344 11.789062 C 15.609375 11.347656 15.234375 10.730469 14.636719 10.328125 C 14.453125 10.203125 14.613281 9.9375 14.824219 9.878906 Z M 7.359375 15.070312 C 7.363281 14.707031 7.679688 14.671875 7.949219 14.597656 C 8.828125 14.351562 9.65625 14.507812 10.496094 14.820312 C 11.542969 15.210938 11.550781 15.179688 12.050781 14.164062 C 12.085938 14.09375 12.152344 14.042969 12.25 13.925781 C 12.566406 14.082031 12.195312 14.554688 12.558594 14.667969 C 12.859375 14.757812 13.09375 14.589844 13.351562 14.507812 C 13.578125 14.4375 13.8125 14.394531 14.042969 14.339844 C 14.421875 14.273438 14.800781 14.191406 15.179688 14.140625 C 15.304688 14.121094 15.527344 14.085938 15.457031 14.335938 C 15.433594 14.429688 15.296875 14.496094 15.214844 14.574219 C 15.347656 14.871094 15.257812 15.128906 15.03125 15.320312 C 14.820312 15.496094 14.582031 15.644531 14.34375 15.78125 C 13.339844 16.378906 13.339844 16.375 13.941406 17.40625 C 13.277344 17.679688 12.796875 18.222656 12.191406 18.589844 C 11.921875 18.753906 11.640625 18.921875 11.34375 19.007812 C 10.96875 19.113281 10.453125 19.25 10.261719 18.839844 C 10.023438 18.324219 10.617188 18.238281 10.921875 18.042969 C 11.289062 17.804688 11.679688 17.613281 12.058594 17.394531 C 12.472656 17.148438 12.738281 16.792969 12.566406 16.308594 C 12.382812 15.792969 11.886719 15.710938 11.476562 15.917969 C 10.207031 16.566406 9.085938 15.75 7.902344 15.613281 C 7.636719 15.582031 7.359375 15.40625 7.359375 15.070312 Z M 6.972656 39.144531 C 6.980469 39.316406 6.882812 39.449219 6.703125 39.453125 C 6.476562 39.464844 6.347656 39.316406 6.308594 39.109375 C 6.269531 38.894531 6.351562 38.734375 6.574219 38.667969 C 6.871094 38.691406 6.964844 38.894531 6.972656 39.144531 Z M 13.0625 42.921875 C 13.113281 43.5625 12.503906 43.441406 12.128906 43.535156 C 11.769531 43.625 11.421875 43.574219 11.320312 43.148438 C 11.289062 42.753906 11.703125 42.378906 12.195312 42.339844 C 12.640625 42.300781 13.03125 42.480469 13.0625 42.921875 Z M 9.746094 39.257812 C 9.777344 39.695312 9.382812 40.011719 8.777344 40.054688 C 8.300781 40.089844 7.992188 39.914062 7.960938 39.589844 C 7.925781 39.191406 8.585938 38.691406 9.164062 38.671875 C 9.5625 38.660156 9.722656 38.910156 9.746094 39.257812 Z M 94.308594 32.289062 C 94.347656 32.164062 94.449219 32.105469 94.554688 32.144531 C 94.644531 32.179688 94.761719 32.277344 94.769531 32.355469 C 94.785156 32.554688 94.632812 32.589844 94.472656 32.539062 C 94.363281 32.503906 94.300781 32.410156 94.308594 32.289062 Z M 83.304688 57.109375 C 83.34375 57.113281 83.378906 57.117188 83.417969 57.117188 C 83.410156 57.148438 83.410156 57.207031 83.398438 57.210938 C 83.28125 57.242188 83.25 57.203125 83.304688 57.109375 Z M 93.617188 58.984375 L 93.554688 58.953125 L 93.613281 58.910156 Z M 93.558594 59.660156 C 93.710938 59.652344 93.886719 59.640625 93.921875 59.832031 C 93.9375 59.917969 93.867188 60.070312 93.789062 60.113281 C 93.558594 60.246094 93.445312 60.070312 93.347656 59.894531 C 93.207031 59.914062 93.0625 59.941406 92.917969 59.945312 C 92.898438 59.945312 92.839844 59.796875 92.863281 59.765625 C 93.054688 59.503906 93.300781 59.535156 93.558594 59.660156 Z M 95.230469 58.476562 C 95.386719 58.527344 95.507812 58.625 95.484375 58.800781 C 95.46875 58.933594 95.339844 58.984375 95.230469 58.921875 C 95.144531 58.871094 95.054688 58.769531 95.03125 58.671875 C 94.996094 58.542969 95.09375 58.472656 95.230469 58.476562 Z M 95.367188 55.222656 C 95.527344 55.5625 95.242188 55.738281 95.015625 55.878906 C 94.511719 56.191406 93.796875 56.253906 93.722656 57.058594 C 93.707031 57.191406 93.464844 57.226562 93.304688 57.179688 C 93.121094 57.125 93.089844 56.976562 93.085938 56.804688 C 93.042969 55.597656 93.554688 55.035156 94.742188 54.996094 C 94.980469 54.984375 95.25 54.976562 95.367188 55.222656 Z M 77.441406 71 C 77.164062 71.21875 76.921875 71.410156 76.683594 71.597656 L 76.675781 71.601562 C 76.273438 71.847656 75.828125 71.835938 75.378906 71.808594 C 75.574219 71.777344 75.765625 71.746094 75.957031 71.714844 C 75.761719 71.710938 75.5625 71.714844 75.378906 71.808594 C 75.171875 71.890625 74.96875 72.082031 74.746094 71.835938 C 74.90625 71.4375 75.015625 71.058594 75.625 71.128906 C 76.191406 71.191406 76.757812 70.867188 77.441406 71 Z M 52.628906 9.261719 C 52.628906 9.257812 52.632812 9.25 52.632812 9.246094 C 52.632812 9.25 52.628906 9.257812 52.628906 9.261719 Z M 82.382812 11.007812 Z M 78.492188 23.84375 C 78.609375 23.773438 78.789062 23.75 78.976562 23.726562 C 78.832031 23.757812 78.667969 23.796875 78.492188 23.84375 Z M 86.449219 59.539062 C 86.375 59.519531 86.304688 59.476562 86.246094 59.394531 C 86.3125 59.453125 86.378906 59.5 86.449219 59.539062 Z M 82.289062 66.816406 C 82.292969 66.8125 82.292969 66.8125 82.296875 66.808594 C 82.300781 66.8125 82.308594 66.816406 82.3125 66.820312 C 82.304688 66.820312 82.296875 66.816406 82.289062 66.816406 Z M 64.277344 70.191406 C 64.285156 70.183594 64.296875 70.175781 64.304688 70.167969 C 64.296875 70.175781 64.285156 70.183594 64.277344 70.191406 Z M 75.542969 41.894531 C 75.632812 41.890625 75.726562 41.878906 75.808594 41.898438 C 75.722656 41.902344 75.628906 41.890625 75.542969 41.894531 Z M 88.828125 61.8125 C 88.828125 61.8125 88.828125 61.808594 88.824219 61.808594 C 88.824219 61.808594 88.824219 61.804688 88.824219 61.804688 C 88.828125 61.808594 88.832031 61.808594 88.832031 61.8125 C 88.832031 61.8125 88.832031 61.8125 88.828125 61.8125 Z M 97.128906 63.085938 C 96.851562 62.898438 96.53125 62.9375 96.214844 62.921875 C 95.457031 62.882812 94.691406 62.859375 93.964844 62.507812 C 94.945312 62.238281 96.027344 62.277344 96.6875 61.335938 C 96.527344 61.179688 96.367188 61.023438 96.207031 60.863281 C 94.929688 60.914062 93.679688 60.488281 92.394531 60.625 C 91.992188 59.746094 91.941406 59.679688 91.085938 59.925781 C 90.617188 60.0625 90.257812 60.042969 89.890625 59.734375 C 89.539062 59.4375 89.160156 59.507812 88.78125 59.691406 C 88.40625 59.6875 88.027344 59.683594 87.648438 59.679688 C 87.484375 59.675781 87.316406 59.671875 87.148438 59.671875 L 87.160156 59.652344 C 87.109375 59.601562 87.050781 59.574219 86.988281 59.558594 C 86.753906 59.449219 86.507812 59.398438 86.246094 59.394531 C 86.246094 59.394531 86.226562 59.378906 86.226562 59.378906 C 87.015625 59.128906 87.246094 58.476562 87.394531 57.761719 C 87.417969 57.535156 87.734375 57.40625 87.605469 57.128906 C 86.488281 57.015625 86.484375 57.015625 85.734375 57.511719 C 85.5625 57.574219 85.394531 57.632812 85.226562 57.695312 C 85.125 57.46875 85.132812 57.132812 84.789062 57.121094 C 84.539062 57.109375 84.519531 57.316406 84.539062 57.515625 C 83.972656 57.527344 83.402344 57.464844 82.863281 57.703125 C 82.785156 57.644531 82.707031 57.585938 82.625 57.527344 C 82.230469 57.082031 81.839844 57.066406 81.457031 57.539062 C 81.394531 57.882812 81.453125 58.292969 80.988281 58.425781 C 80.726562 57.460938 79.9375 57.347656 79.132812 57.292969 C 78.363281 57.246094 78.363281 57.269531 77.726562 56.898438 C 78.722656 56.832031 79.539062 56.742188 80.351562 56.738281 C 81.648438 56.734375 82.941406 56.800781 84.238281 56.816406 C 84.707031 56.820312 85.203125 56.832031 85.484375 56.328125 C 85.628906 56.089844 85.589844 55.847656 85.492188 55.605469 C 86.253906 55.289062 86.914062 55.921875 87.652344 55.828125 C 87.804688 55.835938 87.957031 55.84375 88.113281 55.851562 C 88.03125 56.011719 87.953125 56.171875 87.871094 56.328125 C 87.375 56.46875 86.808594 56.179688 86.335938 56.734375 C 87.167969 56.769531 87.996094 56.804688 88.828125 56.835938 C 88.789062 56.90625 88.707031 57.007812 88.722656 57.035156 C 89.054688 57.496094 89.566406 57.679688 90.082031 57.746094 C 90.441406 57.796875 90.808594 57.496094 90.824219 57.140625 C 90.847656 56.679688 90.382812 56.859375 90.117188 56.804688 C 90.003906 56.78125 89.882812 56.800781 89.765625 56.796875 C 89.765625 56.640625 89.765625 56.488281 89.761719 56.332031 C 90.355469 56.3125 90.945312 56.304688 91.535156 56.273438 C 91.695312 56.265625 91.847656 56.164062 91.84375 55.980469 C 91.835938 55.792969 91.667969 55.710938 91.515625 55.691406 C 91.28125 55.660156 91.042969 55.65625 90.808594 55.675781 C 90.300781 55.71875 89.792969 55.78125 89.28125 55.835938 C 89.28125 55.753906 89.285156 55.671875 89.285156 55.589844 C 89.398438 55.578125 89.519531 55.574219 89.632812 55.550781 C 89.75 55.53125 89.914062 55.46875 89.882812 55.359375 C 89.816406 55.136719 89.632812 55.269531 89.496094 55.304688 C 89.417969 55.320312 89.351562 55.363281 89.277344 55.394531 C 89.199219 55.3125 89.121094 55.226562 89.042969 55.144531 C 89.460938 54.875 89.921875 54.820312 90.410156 54.839844 C 90.925781 54.859375 91.441406 54.863281 91.953125 54.851562 C 92.355469 54.839844 92.855469 54.78125 92.835938 54.28125 C 92.816406 53.859375 92.320312 54.074219 92.042969 53.996094 C 91.929688 53.964844 91.808594 53.96875 91.6875 53.960938 C 90.367188 53.867188 89.007812 53.972656 87.832031 53.152344 C 87.746094 53.089844 87.535156 53.207031 87.382812 53.242188 C 87.226562 53.234375 87.074219 53.226562 86.917969 53.222656 C 85.902344 53.136719 84.914062 52.894531 83.921875 52.683594 C 83.777344 52.652344 83.621094 52.675781 83.46875 52.691406 C 83.433594 52.6875 83.390625 52.6875 83.34375 52.699219 C 83.027344 52.722656 82.714844 52.722656 82.429688 52.542969 C 83.351562 52.277344 84.269531 52.011719 85.191406 51.742188 C 85.136719 51.726562 85.078125 51.707031 85.023438 51.6875 C 85.085938 51.6875 85.144531 51.703125 85.191406 51.742188 C 86.628906 51.460938 87.964844 50.878906 89.324219 50.367188 C 89.828125 50.140625 90.34375 49.933594 90.835938 49.679688 C 91.230469 49.472656 91.664062 49.261719 91.691406 48.648438 C 91.175781 48.722656 90.769531 48.898438 90.324219 48.867188 C 89.886719 48.832031 89.398438 48.902344 89.101562 48.539062 C 88.386719 47.671875 87.671875 47.949219 86.921875 48.441406 C 86.753906 48.523438 86.585938 48.601562 86.417969 48.683594 C 86.066406 47.835938 85.992188 47.792969 85.265625 48.128906 C 84.980469 48.261719 84.722656 48.46875 84.429688 48.5625 C 84.167969 48.648438 83.871094 48.628906 83.835938 48.214844 C 84.800781 48.082031 85.597656 47.566406 86.335938 47.019531 C 87.121094 46.4375 88.230469 46.554688 88.929688 45.804688 C 88.757812 45.605469 88.589844 45.605469 88.445312 45.652344 C 87.597656 45.945312 86.777344 46.015625 85.917969 45.648438 C 85.558594 45.492188 85.136719 45.613281 84.765625 45.777344 C 84.449219 45.792969 84.132812 45.808594 83.816406 45.824219 C 83.738281 45.828125 83.65625 45.828125 83.578125 45.832031 C 83.273438 45.835938 82.96875 45.839844 82.664062 45.84375 C 82.492188 45.839844 82.316406 45.835938 82.144531 45.832031 C 81.914062 45.832031 81.683594 45.835938 81.453125 45.835938 C 80.894531 45.839844 80.328125 45.777344 79.796875 46.027344 C 79.542969 45.933594 79.285156 45.839844 78.984375 45.726562 C 79.230469 45.566406 79.386719 45.46875 79.542969 45.367188 L 79.523438 45.316406 C 80.402344 45.238281 81.300781 45.546875 82.167969 45.152344 C 81.949219 45.070312 81.730469 44.992188 81.507812 44.910156 C 81.84375 44.945312 82.125 44.824219 82.378906 44.617188 C 83.523438 44.644531 84.632812 44.394531 85.746094 44.167969 C 86.59375 44.070312 87.457031 44.035156 88.246094 43.589844 C 86.976562 43.390625 85.683594 43.839844 84.441406 43.382812 C 84.355469 43.351562 84.171875 43.453125 84.214844 43.570312 C 84.261719 43.703125 84.410156 43.796875 84.515625 43.90625 C 83.929688 43.976562 83.359375 43.972656 82.894531 43.53125 C 82.273438 44.085938 81.5625 43.609375 80.902344 43.664062 C 80.308594 43.710938 79.679688 44.027344 79.070312 43.6875 C 80.796875 43.195312 82.527344 42.707031 84.253906 42.214844 C 84.964844 42.058594 85.675781 41.90625 86.386719 41.75 C 87.011719 41.78125 87.617188 41.753906 88.105469 41.28125 C 88.875 41.558594 89.65625 41.445312 90.429688 41.394531 C 90.5625 40.046875 90.5625 40.046875 89.269531 40.027344 C 89.113281 40.027344 88.949219 40.027344 88.90625 39.742188 C 89.648438 39.253906 90.164062 38.601562 90.476562 37.675781 C 90.957031 36.246094 92.140625 35.726562 93.625 36.007812 C 93.824219 36.046875 93.984375 36.082031 94.050781 36.332031 C 94.21875 36.980469 94.277344 36.996094 94.765625 36.679688 C 95.347656 36.304688 95.355469 36.089844 94.726562 35.671875 C 94.320312 35.398438 93.953125 35.117188 93.828125 34.617188 C 94.144531 34.613281 94.460938 34.613281 94.777344 34.613281 C 94.683594 34.1875 94.367188 34.089844 93.988281 34.023438 C 93.132812 33.871094 92.285156 33.6875 91.429688 33.515625 C 91.195312 33.46875 90.941406 33.441406 90.933594 33.125 C 90.929688 32.90625 91.085938 32.761719 91.261719 32.667969 C 91.402344 32.59375 91.554688 32.550781 91.703125 32.503906 C 91.949219 32.421875 92.324219 32.496094 92.328125 32.105469 C 92.335938 31.8125 92.085938 31.613281 91.855469 31.460938 C 91.433594 31.183594 90.914062 31.027344 90.9375 30.351562 C 90.945312 30.15625 90.65625 30.113281 90.460938 30.082031 C 89.914062 30.003906 89.367188 29.925781 88.820312 29.847656 C 88.820312 29.847656 88.816406 29.847656 88.816406 29.847656 C 89.226562 29.585938 89.78125 29.734375 90.152344 29.464844 C 90.683594 29.082031 91.167969 29.199219 91.703125 29.359375 C 92.15625 29.496094 92.625 29.5625 93.097656 29.5 C 93.484375 29.449219 93.507812 29.199219 93.355469 28.898438 C 93.355469 28.898438 93.351562 28.890625 93.351562 28.890625 C 92.953125 28.890625 92.554688 28.890625 92.15625 28.890625 C 90.519531 28.375 88.828125 28.15625 87.128906 27.960938 C 87.128906 27.960938 87.128906 27.960938 87.132812 27.960938 C 87.128906 27.960938 87.128906 27.960938 87.128906 27.960938 C 87.046875 27.964844 86.964844 27.96875 86.882812 27.972656 C 86.847656 27.988281 86.808594 28.003906 86.769531 28.011719 C 86.804688 28 86.84375 27.988281 86.882812 27.972656 C 85.789062 27.890625 84.699219 27.75 83.617188 27.570312 C 83.578125 27.484375 83.542969 27.394531 83.519531 27.300781 C 83.191406 26.226562 82.410156 25.742188 81.355469 25.535156 C 80.949219 25.457031 80.464844 25.5 80.15625 25.09375 C 80.132812 25.011719 80.128906 24.925781 80.117188 24.839844 C 80.195312 23.902344 80.089844 23.59375 79.410156 23.65625 C 79.628906 23.597656 79.800781 23.492188 79.835938 23.25 C 79.980469 22.195312 80.613281 22.140625 81.382812 22.074219 C 82.40625 21.984375 83.101562 21.34375 83.121094 20.511719 C 83.144531 19.386719 82.191406 19.6875 81.59375 19.464844 C 81.476562 19.445312 81.355469 19.433594 81.238281 19.402344 C 81.234375 19.394531 81.230469 19.386719 81.226562 19.378906 C 81.445312 19.28125 81.804688 19.410156 81.859375 18.953125 C 81.492188 18.851562 81.128906 18.828125 80.765625 18.839844 C 80.773438 18.820312 80.785156 18.796875 80.792969 18.777344 C 81.070312 18.40625 81.503906 18.433594 81.898438 18.386719 C 83.777344 18.160156 85.621094 17.734375 87.496094 17.496094 C 88.328125 17.386719 88.445312 16.957031 87.882812 16.316406 C 87.835938 16.261719 87.796875 16.207031 87.753906 16.15625 C 88.492188 16.0625 89.207031 15.820312 89.972656 15.527344 C 89.511719 15.226562 89.191406 15.433594 88.863281 15.507812 C 88.710938 15.402344 88.558594 15.300781 88.292969 15.117188 C 89.074219 15.082031 89.746094 15.050781 90.414062 15.019531 C 90.675781 14.90625 90.722656 14.738281 90.433594 14.644531 C 89.953125 14.492188 89.382812 14.667969 88.949219 14.34375 C 88.101562 13.710938 87.121094 13.683594 86.136719 13.632812 C 85.789062 13.613281 85.441406 13.628906 85.105469 13.628906 C 85.0625 13.3125 85.480469 13.410156 85.371094 13.070312 C 84.324219 13.007812 83.222656 13.324219 82.167969 12.945312 C 82.289062 12.816406 82.347656 12.691406 82.148438 12.582031 C 81.710938 12.339844 81.242188 12.199219 80.742188 12.175781 C 80.648438 11.898438 80.6875 11.703125 81.039062 11.777344 C 81.335938 11.839844 81.609375 12.027344 81.933594 11.960938 C 82.597656 12 83.300781 12.441406 83.90625 12.082031 C 84.582031 11.679688 85.265625 11.746094 85.964844 11.710938 C 85.964844 11.628906 85.964844 11.546875 85.964844 11.46875 C 85.1875 11.089844 84.359375 11.277344 83.550781 11.246094 C 83.550781 11.246094 83.550781 11.246094 83.554688 11.25 C 83.550781 11.246094 83.550781 11.246094 83.550781 11.246094 C 83.40625 11.246094 83.257812 11.242188 83.113281 11.242188 C 82.890625 11.09375 82.644531 11.023438 82.382812 11.003906 C 82.421875 10.75 82.496094 10.5625 82.824219 10.574219 C 83.484375 10.597656 84.117188 10.324219 84.808594 10.445312 C 85.398438 10.550781 85.695312 10.195312 85.488281 9.5625 C 84.902344 9.382812 84.308594 9.527344 83.71875 9.546875 C 83.167969 9.566406 82.546875 9.683594 82.128906 9.25 C 81.476562 8.570312 80.773438 8.582031 79.953125 8.820312 C 78.945312 9.113281 78.925781 9.085938 78.410156 8.140625 C 78.242188 7.839844 78.03125 7.640625 77.785156 7.945312 C 77.089844 8.820312 76.328125 8.296875 75.585938 8.21875 C 75.546875 7.824219 76.070312 7.792969 75.886719 7.386719 C 75.363281 7.296875 75.050781 7.652344 74.691406 7.960938 C 74.132812 8.433594 73.910156 8.398438 73.417969 7.847656 C 73.316406 7.734375 73.277344 7.566406 73 7.511719 C 72.597656 7.65625 72.210938 8.335938 71.605469 7.914062 C 71.203125 7.628906 70.890625 7.71875 70.511719 7.914062 C 70.308594 8.015625 70.058594 8.070312 69.832031 8.070312 C 69.023438 8.078125 68.683594 8.164062 68.078125 8.53125 C 67.949219 8.613281 67.808594 8.675781 67.667969 8.734375 C 67.546875 8.621094 67.425781 8.511719 67.277344 8.472656 C 66.257812 8.839844 65.207031 8.792969 64.152344 8.699219 C 63.339844 8.625 62.53125 8.351562 61.71875 8.675781 C 61.503906 8.804688 61.410156 9.042969 61.242188 9.210938 C 61.210938 9.234375 61.183594 9.253906 61.15625 9.273438 C 61.058594 9.3125 60.96875 9.367188 60.886719 9.4375 C 60.699219 9.535156 60.507812 9.605469 60.3125 9.636719 C 59.816406 9.429688 59.355469 9.070312 58.785156 9.238281 C 58.761719 9.246094 58.734375 9.25 58.710938 9.257812 C 58.492188 9.1875 58.265625 9.164062 58.023438 9.210938 C 57.765625 9.261719 57.507812 9.304688 57.25 9.34375 C 56.917969 9.292969 56.589844 9.195312 56.261719 9.054688 C 56.074219 8.976562 55.90625 8.925781 55.703125 9.042969 C 54.792969 9.566406 54.023438 9.191406 53.289062 8.632812 C 52.992188 8.6875 52.757812 8.820312 52.652344 9.125 C 52.648438 9.160156 52.644531 9.195312 52.640625 9.222656 C 52.644531 9.191406 52.648438 9.160156 52.652344 9.125 C 52.308594 9.234375 52.171875 8.90625 51.933594 8.789062 C 51.515625 8.515625 51.101562 8.539062 50.695312 8.8125 L 50.683594 8.824219 C 50.449219 8.984375 50.210938 9.144531 49.972656 9.304688 C 49.894531 9.355469 49.835938 9.417969 49.792969 9.488281 C 48.824219 9.324219 47.902344 8.839844 46.90625 8.890625 C 46.789062 8.863281 46.671875 8.84375 46.550781 8.828125 C 45.824219 8.769531 45.105469 8.804688 44.394531 8.960938 C 44.136719 8.988281 43.878906 9.011719 43.625 9.074219 C 43.347656 9.152344 43.160156 9.304688 43.035156 9.519531 C 42.101562 9.5 41.171875 9.578125 40.257812 9.828125 C 39.738281 9.710938 39.667969 10.484375 39.347656 10.40625 C 38.832031 10.28125 38.414062 10.652344 37.957031 10.820312 C 37.671875 10.808594 37.382812 10.789062 37.09375 10.777344 C 37.089844 10.773438 37.085938 10.773438 37.082031 10.769531 C 37.03125 10.742188 36.980469 10.742188 36.929688 10.765625 C 36.839844 10.761719 36.746094 10.757812 36.65625 10.753906 C 36.578125 10.738281 36.496094 10.710938 36.421875 10.726562 C 32.703125 11.5625 28.941406 12.054688 25.144531 12.367188 C 23.335938 12.515625 21.519531 12.707031 19.75 13.171875 C 19.667969 13.203125 19.582031 13.234375 19.496094 13.257812 C 19.4375 13.25 19.367188 13.253906 19.292969 13.265625 C 18.628906 13.367188 17.976562 13.519531 17.292969 13.523438 C 16.773438 13.527344 16.515625 13.804688 16.546875 14.253906 C 16.53125 14.265625 16.511719 14.277344 16.492188 14.289062 C 16.074219 14.664062 16.089844 15.058594 16.367188 15.472656 C 16.351562 15.488281 16.339844 15.507812 16.324219 15.527344 C 16.382812 15.648438 16.457031 15.753906 16.542969 15.84375 C 16.566406 15.929688 16.582031 16.015625 16.582031 16.109375 C 16.546875 16.28125 16.480469 16.449219 16.453125 16.625 C 16.429688 16.679688 16.402344 16.726562 16.371094 16.773438 C 16.246094 16.785156 16.121094 16.816406 15.996094 16.875 C 15.855469 16.941406 15.710938 17.042969 15.769531 17.222656 C 15.785156 17.277344 15.816406 17.316406 15.855469 17.34375 C 15.796875 17.449219 15.730469 17.550781 15.65625 17.648438 C 15.589844 17.707031 15.519531 17.769531 15.472656 17.847656 C 15.375 17.953125 15.277344 18.054688 15.195312 18.167969 C 15.085938 18.316406 14.984375 18.457031 14.898438 18.59375 C 14.5 18.667969 14.152344 18.878906 13.894531 19.238281 C 13.542969 19.734375 13.113281 19.992188 12.570312 20.164062 C 12.195312 20.285156 11.824219 20.4375 11.476562 20.625 C 11.097656 20.828125 11.097656 21.230469 11.4375 21.488281 C 11.640625 21.640625 11.898438 21.730469 12.109375 21.628906 C 13.109375 21.144531 14.058594 21.636719 15.023438 21.742188 C 15.09375 21.824219 15.167969 21.878906 15.25 21.917969 C 15.234375 21.972656 15.214844 22.03125 15.191406 22.085938 C 15.0625 22.28125 14.890625 22.445312 14.777344 22.65625 C 14.625 22.902344 14.449219 23.101562 14.257812 23.265625 C 14.070312 23.324219 13.878906 23.367188 13.683594 23.398438 C 13.285156 23.46875 12.871094 23.546875 12.554688 23.78125 C 12.542969 23.78125 12.53125 23.78125 12.515625 23.777344 C 12.191406 23.847656 11.867188 23.902344 11.542969 23.96875 C 10.71875 24.25 9.847656 24.261719 9.011719 24.460938 C 8.5 24.582031 7.792969 24.546875 7.675781 25.191406 C 7.5625 25.84375 8.113281 26.222656 8.640625 26.519531 C 8.707031 26.558594 8.765625 26.613281 8.835938 26.671875 C 8.828125 26.75 8.792969 26.820312 8.75 26.886719 C 8.65625 26.941406 8.601562 27.011719 8.601562 27.089844 C 8.472656 27.234375 8.3125 27.347656 8.179688 27.488281 C 8.039062 27.6875 7.925781 27.910156 7.894531 28.136719 C 7.804688 28.761719 7.761719 29.300781 7.023438 29.648438 C 6.453125 29.921875 6.644531 30.78125 7.304688 31.046875 C 8.074219 31.351562 8.855469 31.648438 9.710938 31.628906 C 11.605469 31.578125 13.5 31.722656 15.394531 31.429688 C 16.5 31.261719 17.625 31.015625 18.828125 31.175781 C 18.3125 31.382812 17.835938 31.382812 17.359375 31.40625 C 15.25 31.507812 13.316406 32.097656 11.679688 33.488281 C 11.15625 33.933594 10.6875 34.5 11.425781 35.042969 C 12.15625 35.582031 12.171875 36.144531 11.929688 36.890625 C 11.679688 37.671875 11.632812 38.511719 11.222656 39.261719 C 10.988281 39.695312 10.992188 40.085938 11.261719 40.375 C 11.242188 40.375 11.222656 40.378906 11.199219 40.378906 C 11.308594 40.550781 11.441406 40.699219 11.640625 40.757812 C 13.785156 41.371094 15.949219 41.597656 18.140625 41.171875 C 18.617188 41.175781 19.09375 41.175781 19.570312 41.175781 C 19.628906 41.175781 19.691406 41.175781 19.75 41.175781 C 19.753906 41.21875 19.757812 41.265625 19.757812 41.308594 C 19.457031 41.296875 19.167969 41.351562 18.902344 41.503906 C 18.410156 41.796875 18.628906 42.027344 18.972656 42.246094 C 18.914062 42.328125 18.851562 42.410156 18.792969 42.488281 C 18.53125 42.398438 18.246094 42.269531 18.058594 42.578125 C 17.90625 42.828125 17.867188 43.199219 18.132812 43.324219 C 18.78125 43.640625 18.613281 44.363281 18.972656 44.808594 C 18.914062 45.203125 18.191406 45.035156 18.316406 45.582031 C 18.316406 45.742188 18.3125 45.898438 18.308594 46.058594 C 18.253906 46.082031 18.191406 46.101562 18.128906 46.105469 C 17.929688 46.117188 17.679688 46.125 17.707031 46.390625 C 17.726562 46.5625 17.949219 46.546875 18.109375 46.519531 C 18.261719 46.523438 18.410156 46.53125 18.5625 46.535156 C 18.433594 46.671875 18.304688 46.808594 18.175781 46.945312 C 18.132812 46.964844 18.101562 46.992188 18.085938 47.039062 L 18.050781 47.003906 C 17.609375 47.484375 16.957031 47.667969 16.332031 48.085938 C 17.414062 48.394531 18.363281 48.40625 19.308594 48.324219 C 21.753906 48.105469 24.195312 48 26.625 48.480469 C 26.476562 48.613281 26.324219 48.75 26.175781 48.882812 C 25.644531 49.011719 25.070312 48.992188 24.609375 49.332031 C 24.578125 49.34375 24.546875 49.367188 24.511719 49.410156 C 24.285156 49.417969 24.058594 49.429688 23.832031 49.4375 C 23.273438 49.605469 22.707031 49.757812 22.199219 50.058594 C 21.339844 50.566406 21.332031 50.683594 22.144531 51.320312 C 22.035156 52.015625 22.070312 52.042969 23.054688 52.050781 C 23.019531 52.1875 23.03125 52.40625 22.945312 52.457031 C 22.488281 52.730469 22.671875 52.878906 23.015625 53.03125 C 23.117188 53.078125 23.203125 53.152344 23.296875 53.210938 C 23.226562 53.214844 23.15625 53.222656 23.085938 53.234375 C 22.476562 53.203125 22.128906 53.648438 21.648438 53.917969 C 21.90625 54.226562 22.296875 54.265625 22.347656 54.636719 C 21.753906 54.75 22.234375 55.359375 21.894531 55.605469 C 21.265625 56.050781 20.933594 56.796875 20.246094 57.207031 C 23.671875 56.863281 27.054688 56.335938 30.648438 56.421875 C 30.3125 56.894531 29.917969 56.898438 29.644531 57.085938 C 29.488281 57.195312 29.355469 57.339844 29.210938 57.46875 C 29.679688 57.894531 28.972656 58.488281 29.421875 58.917969 C 29.261719 58.953125 29.117188 59.007812 29.027344 59.160156 C 28.464844 59.246094 28.210938 59.898438 27.621094 59.941406 C 27.246094 59.972656 26.929688 60.136719 26.652344 60.378906 C 26.320312 60.40625 25.992188 60.429688 25.699219 60.613281 C 25.433594 60.789062 25.132812 60.820312 24.828125 60.875 C 23.882812 61.050781 22.914062 61.167969 22.136719 61.824219 C 21.925781 62.414062 22.105469 62.875 22.617188 63.222656 C 23.003906 63.238281 23.390625 63.25 23.777344 63.265625 C 23.777344 63.335938 23.78125 63.40625 23.789062 63.476562 C 22.761719 63.824219 21.886719 64.429688 21 65.128906 C 22.023438 64.949219 21.757812 66.210938 22.699219 66.222656 C 21.6875 66.699219 21.566406 66.984375 21.839844 67.796875 C 22.105469 68.273438 21.308594 68.230469 21.414062 68.605469 C 21.597656 68.867188 22.011719 68.609375 22.101562 68.945312 C 21.683594 69.640625 20.78125 69.785156 20.355469 70.609375 C 21.832031 70.921875 23.234375 71.136719 24.664062 71.132812 C 26.566406 71.128906 28.464844 71.105469 30.367188 71.089844 C 30.910156 71.089844 31.457031 71.089844 32 71.089844 C 32.003906 71.089844 32.003906 71.089844 32.003906 71.089844 L 32.058594 71.074219 C 32.445312 70.804688 32.886719 70.867188 33.320312 70.871094 C 33.480469 70.960938 33.707031 70.820312 33.839844 71.015625 C 33.046875 71.378906 33.046875 71.378906 32.625 72.269531 C 32.769531 72.503906 32.914062 72.738281 33.058594 72.972656 C 32.375 73.230469 31.96875 73.671875 32.054688 74.519531 C 33.292969 74.574219 34.496094 74.632812 35.703125 74.6875 C 36.863281 74.683594 38.027344 74.675781 39.1875 74.671875 C 39.253906 74.652344 39.320312 74.636719 39.386719 74.625 C 39.320312 74.640625 39.253906 74.652344 39.1875 74.671875 C 40.171875 74.65625 41.167969 74.859375 42.128906 74.472656 C 42.363281 74.378906 42.601562 74.367188 42.84375 74.441406 C 42.992188 74.488281 43.175781 74.496094 43.285156 74.589844 C 43.828125 75.050781 44.078125 74.730469 44.277344 74.242188 C 44.480469 74.214844 44.683594 74.191406 44.890625 74.167969 C 45.082031 74.183594 45.277344 74.195312 45.472656 74.207031 C 45.472656 74.210938 45.472656 74.210938 45.472656 74.210938 C 45.527344 74.273438 45.585938 74.304688 45.652344 74.304688 C 45.984375 74.453125 46.347656 74.449219 46.710938 74.4375 C 47.335938 74.457031 47.957031 74.394531 48.5625 74.226562 C 48.816406 74.425781 49.070312 74.328125 49.335938 74.238281 C 49.632812 74.144531 49.898438 74 50.238281 74 C 51.300781 74.011719 52.367188 73.984375 53.425781 73.929688 C 54.015625 73.898438 54.636719 73.882812 55.175781 73.679688 C 55.640625 73.5 56.046875 73.492188 56.523438 73.5 C 57.4375 73.515625 58.40625 73.703125 59.207031 72.972656 C 59.53125 72.671875 60.132812 72.738281 60.375 72.921875 C 60.996094 73.378906 61.5625 73.179688 62.164062 73.042969 C 62.769531 72.921875 63.285156 72.664062 63.59375 72.097656 C 64.074219 72.617188 64.660156 72.816406 65.375 72.75 C 65.957031 72.695312 66.546875 72.742188 67.136719 72.742188 C 67.324219 72.761719 67.410156 72.597656 67.542969 72.519531 C 67.832031 72.238281 68.257812 72.28125 68.574219 72.070312 C 69.152344 71.886719 69.734375 71.703125 70.3125 71.519531 C 70.199219 71.160156 69.949219 71.1875 69.742188 71.148438 C 69.9375 70.246094 69.015625 70.359375 68.617188 70.027344 C 68.839844 69.578125 69.28125 69.695312 69.558594 69.484375 C 69.757812 69.332031 69.925781 69.15625 69.847656 68.902344 C 69.742188 68.5625 69.4375 68.523438 69.179688 68.652344 C 68.53125 68.96875 67.792969 68.914062 67.148438 69.210938 C 67.074219 69.0625 66.621094 68.890625 67.074219 68.769531 C 67.570312 68.632812 67.972656 68.398438 68.347656 68.074219 C 68.6875 68.226562 69.027344 68.34375 69.34375 68.019531 C 70.351562 68.183594 70.449219 68.269531 70.519531 69.140625 C 70.539062 69.375 70.5625 69.632812 70.480469 69.84375 C 70.253906 70.441406 70.515625 70.738281 71.042969 70.925781 C 71.191406 70.976562 71.324219 71.070312 71.460938 71.148438 C 71.859375 71.605469 72.371094 71.433594 72.855469 71.394531 C 72.859375 71.394531 72.859375 71.394531 72.859375 71.394531 C 72.78125 71.621094 72.703125 71.847656 72.625 72.074219 C 72.96875 72.070312 73.296875 72.027344 73.59375 71.839844 C 73.625 71.511719 73.78125 71.253906 74.054688 71.066406 C 74.367188 70.851562 74.5 70.539062 74.535156 70.175781 C 75.113281 70.210938 75.679688 70.171875 76.210938 69.910156 C 76.789062 69.976562 77.355469 69.984375 77.886719 69.703125 C 78.230469 69.824219 78.128906 70.164062 78.21875 70.40625 C 78.425781 70.957031 78.765625 71.144531 79.3125 70.886719 C 80.105469 70.835938 80.925781 71.039062 81.6875 70.65625 C 82.679688 70.792969 83.566406 70.316406 84.503906 70.144531 C 84.898438 70.292969 85.21875 70.097656 85.535156 69.898438 C 85.917969 69.910156 86.304688 69.917969 86.691406 69.929688 C 87.710938 70.25 88.601562 69.617188 89.566406 69.539062 C 89.859375 69.515625 90.121094 69.429688 90.128906 69.066406 C 90.136719 68.707031 89.945312 68.464844 89.609375 68.367188 C 88.996094 68.191406 88.367188 68.253906 87.742188 68.304688 C 87.5 68.320312 87.226562 68.492188 86.964844 68.191406 C 87.308594 68.03125 87.589844 67.902344 87.871094 67.777344 C 88.140625 67.460938 88.035156 66.632812 88.84375 67.070312 C 88.738281 67.375 88.757812 67.632812 89.128906 67.710938 C 89.597656 67.804688 90.074219 67.804688 90.542969 67.699219 C 91.546875 67.460938 92.558594 67.355469 93.582031 67.535156 C 94.265625 67.828125 94.886719 67.617188 95.496094 67.308594 C 96 66.914062 96.746094 66.964844 97.140625 66.378906 C 97.234375 66.140625 97.527344 65.960938 97.371094 65.644531 C 97.289062 65.636719 97.207031 65.609375 97.140625 65.628906 C 96.863281 65.714844 96.511719 66.121094 96.320312 65.75 C 96.117188 65.351562 96.652344 65.351562 96.890625 65.207031 C 96.953125 65.167969 97.035156 65.140625 97.109375 65.125 C 97.804688 65 97.726562 64.351562 97.839844 63.910156 C 97.960938 63.445312 97.441406 63.296875 97.128906 63.085938 " fill-opacity="1" fill-rule="nonzero"/></g><g fill="#ffffff" fill-opacity="1"><g transform="translate(106.959047, 57.605738)"><g><path d="M 2.9375 -29.375 L 15.734375 -29.375 C 19.484375 -29.375 22.394531 -28.484375 24.46875 -26.703125 C 26.539062 -24.929688 27.578125 -22.410156 27.578125 -19.140625 C 27.578125 -15.691406 26.539062 -13.015625 24.46875 -11.109375 C 22.394531 -9.210938 19.484375 -8.265625 15.734375 -8.265625 L 10.40625 -8.265625 L 10.40625 0 L 2.9375 0 Z M 10.40625 -23.5 L 10.40625 -14.140625 L 15.359375 -14.140625 C 17.015625 -14.140625 18.285156 -14.546875 19.171875 -15.359375 C 20.066406 -16.171875 20.515625 -17.347656 20.515625 -18.890625 C 20.515625 -20.398438 20.066406 -21.546875 19.171875 -22.328125 C 18.285156 -23.109375 17.015625 -23.5 15.359375 -23.5 Z M 10.40625 -23.5 "/></g></g></g><g fill="#ffffff" fill-opacity="1"><g transform="translate(135.495011, 57.605738)"><g><path d="M 20.65625 0 L 16.28125 -8.265625 L 10.40625 -8.265625 L 10.40625 0 L 2.9375 0 L 2.9375 -29.375 L 16.078125 -29.375 C 19.960938 -29.375 22.96875 -28.484375 25.09375 -26.703125 C 27.21875 -24.929688 28.28125 -22.410156 28.28125 -19.140625 C 28.28125 -14.609375 26.503906 -11.457031 22.953125 -9.6875 L 29.125 0 Z M 10.40625 -14.140625 L 16.078125 -14.140625 C 17.703125 -14.140625 18.957031 -14.546875 19.84375 -15.359375 C 20.738281 -16.171875 21.1875 -17.347656 21.1875 -18.890625 C 21.1875 -20.398438 20.738281 -21.546875 19.84375 -22.328125 C 18.957031 -23.109375 17.703125 -23.5 16.078125 -23.5 L 10.40625 -23.5 Z M 10.40625 -14.140625 "/></g></g></g><g fill="#ffffff" fill-opacity="1"><g transform="translate(165.877415, 57.605738)"><g><path d="M 16.875 -29.625 C 21.4375 -29.625 25.226562 -28.203125 28.25 -25.359375 C 31.269531 -22.523438 32.78125 -18.984375 32.78125 -14.734375 C 32.78125 -10.453125 31.257812 -6.867188 28.21875 -3.984375 C 25.1875 -1.109375 21.40625 0.328125 16.875 0.328125 C 12.34375 0.328125 8.5625 -1.101562 5.53125 -3.96875 C 2.507812 -6.832031 1 -10.421875 1 -14.734375 C 1 -19.015625 2.507812 -22.566406 5.53125 -25.390625 C 8.5625 -28.210938 12.34375 -29.625 16.875 -29.625 Z M 16.953125 -23.375 C 14.660156 -23.375 12.703125 -22.539062 11.078125 -20.875 C 9.453125 -19.207031 8.640625 -17.144531 8.640625 -14.6875 C 8.640625 -12.226562 9.457031 -10.148438 11.09375 -8.453125 C 12.738281 -6.765625 14.691406 -5.921875 16.953125 -5.921875 C 19.222656 -5.921875 21.144531 -6.765625 22.71875 -8.453125 C 24.300781 -10.148438 25.09375 -12.226562 25.09375 -14.6875 C 25.09375 -17.144531 24.300781 -19.207031 22.71875 -20.875 C 21.144531 -22.539062 19.222656 -23.375 16.953125 -23.375 Z M 16.953125 -23.375 "/></g></g></g><g fill="#ffffff" fill-opacity="1"><g transform="translate(199.658956, 57.605738)"><g><path d="M 35.21875 0 L 28.625 0 L 28.578125 -19.09375 L 21.53125 -2.9375 L 16.65625 -2.9375 L 9.609375 -19.09375 L 9.609375 0 L 2.9375 0 L 2.9375 -29.421875 L 11.125 -29.421875 L 19.09375 -11.921875 L 27.0625 -29.421875 L 35.21875 -29.421875 Z M 35.21875 0 "/></g></g></g><g fill="#ffffff" fill-opacity="1"><g transform="translate(237.846785, 57.605738)"><g><path d="M 2.9375 -29.375 L 15.734375 -29.375 C 19.484375 -29.375 22.394531 -28.484375 24.46875 -26.703125 C 26.539062 -24.929688 27.578125 -22.410156 27.578125 -19.140625 C 27.578125 -15.691406 26.539062 -13.015625 24.46875 -11.109375 C 22.394531 -9.210938 19.484375 -8.265625 15.734375 -8.265625 L 10.40625 -8.265625 L 10.40625 0 L 2.9375 0 Z M 10.40625 -23.5 L 10.40625 -14.140625 L 15.359375 -14.140625 C 17.015625 -14.140625 18.285156 -14.546875 19.171875 -15.359375 C 20.066406 -16.171875 20.515625 -17.347656 20.515625 -18.890625 C 20.515625 -20.398438 20.066406 -21.546875 19.171875 -22.328125 C 18.285156 -23.109375 17.015625 -23.5 15.359375 -23.5 Z M 10.40625 -23.5 "/></g></g></g><g fill="#ffffff" fill-opacity="1"><g transform="translate(266.38275, 57.605738)"><g><path d="M 25.390625 -23.375 L 16.53125 -23.375 L 16.53125 0 L 9.0625 0 L 9.0625 -23.375 L 0.296875 -23.375 L 0.296875 -29.421875 L 25.390625 -29.421875 Z M 25.390625 -23.375 "/></g></g></g><g fill="#ffffff" fill-opacity="1"><g transform="translate(292.023163, 57.605738)"><g><path d="M 10.40625 -6.25 L 22.875 -6.25 L 22.875 0 L 2.9375 0 L 2.9375 -29.375 L 10.40625 -29.375 Z M 10.40625 -6.25 "/></g></g></g><g fill="#ffffff" fill-opacity="1"><g transform="translate(315.523365, 57.605738)"><g><path d="M 10.40625 0 L 2.9375 0 L 2.9375 -29.375 L 10.40625 -29.375 Z M 10.40625 0 "/></g></g></g><g fill="#ffffff" fill-opacity="1"><g transform="translate(328.868117, 57.605738)"><g><path d="M 16.875 -29.625 C 21.4375 -29.625 25.226562 -28.203125 28.25 -25.359375 C 31.269531 -22.523438 32.78125 -18.984375 32.78125 -14.734375 C 32.78125 -10.453125 31.257812 -6.867188 28.21875 -3.984375 C 25.1875 -1.109375 21.40625 0.328125 16.875 0.328125 C 12.34375 0.328125 8.5625 -1.101562 5.53125 -3.96875 C 2.507812 -6.832031 1 -10.421875 1 -14.734375 C 1 -19.015625 2.507812 -22.566406 5.53125 -25.390625 C 8.5625 -28.210938 12.34375 -29.625 16.875 -29.625 Z M 16.953125 -23.375 C 14.660156 -23.375 12.703125 -22.539062 11.078125 -20.875 C 9.453125 -19.207031 8.640625 -17.144531 8.640625 -14.6875 C 8.640625 -12.226562 9.457031 -10.148438 11.09375 -8.453125 C 12.738281 -6.765625 14.691406 -5.921875 16.953125 -5.921875 C 19.222656 -5.921875 21.144531 -6.765625 22.71875 -8.453125 C 24.300781 -10.148438 25.09375 -12.226562 25.09375 -14.6875 C 25.09375 -17.144531 24.300781 -19.207031 22.71875 -20.875 C 21.144531 -22.539062 19.222656 -23.375 16.953125 -23.375 Z M 16.953125 -23.375 "/></g></g></g></svg>